<svg xmlns="http://www.w3.org/2000/svg" width="138" height="31.472"><g data-name="グループ 4" fill="#ebebeb" fill-rule="evenodd"><path data-name="パス 6" d="M5.887 29.509H-.001V.472h5.888V29.51z"/><path data-name="パス 7" d="M29.436 29.509h-5.887V.472h5.887V29.51z"/><path data-name="パス 8" d="M5.887.472H-.001l23.55 29.038h5.887L5.887.472z"/></g><g data-name="グループ 5" fill="#ebebeb" fill-rule="evenodd"><path data-name="パス 9" d="M99.635 1.908l3.854 4.388-27.206 23.213h-2.23v-5.773L99.636 1.907z"/><path data-name="パス 10" d="M103.489 23.622v5.887H74.052v-5.887z"/><path data-name="パス 11" d="M103.489.472V6.36H74.052V.472z"/></g><g data-name="グループ 7" fill="#ebebeb"><g data-name="グループ 6" fill-rule="evenodd"><path data-name="パス 12" d="M123.281.472l-14.718 29.036h6.581l11.428-22.544-3.291-6.493z"/><path data-name="パス 13" d="M119.99 6.965l11.429 22.544H138L123.282.473l-3.291 6.493z"/><path data-name="パス 14" d="M125.53 17.837l2.944 5.888h6.582l-2.943-5.888z"/></g><path data-name="パス 15" d="M126.819 20.358l-1.635-.238a1.364 1.364 0 01-.918-.666l-.733-1.483c-.154-.315-.41-.315-.566 0l-.73 1.481a1.37 1.37 0 01-.918.668l-1.637.238c-.348.05-.428.295-.176.539l1.184 1.155a1.366 1.366 0 01.353 1.078l-.281 1.629c-.061.346.148.5.459.334l1.463-.769a1.371 1.371 0 011.135 0l1.462.769c.313.163.52.012.457-.334l-.277-1.629a1.367 1.367 0 01.35-1.078l1.183-1.155c.25-.244.172-.489-.175-.539z"/></g><g data-name="グループ 8"><path data-name="パス 16" d="M54.328.472a14.585 14.585 0 00-14.661 14.475 14.376 14.376 0 00.235 2.566 11.782 11.782 0 00-2.533 4.64.42.42 0 00.152.456.433.433 0 00.486.022c1.035-.642 2.6-.254 3.815.942l.057.056.081.08-1.336.842a.42.42 0 00-.073.655l3.148 3.108.006.006a.432.432 0 00.6 0 .425.425 0 00.1-.147l.807-1.25.082.08.057.056c1.211 1.2 1.6 2.745.955 3.767a.413.413 0 00.021.479.322.322 0 00.038.043.434.434 0 00.424.107 12.21 12.21 0 004.523-2.343 14.857 14.857 0 003.014.309 14.476 14.476 0 100-28.949zm0 27.851a13.827 13.827 0 01-2.085-.158 6.409 6.409 0 00.794-1.163 4.305 4.305 0 00.479-2.711 13.385 13.385 0 01-5.32 2.307c.229-.069.456-.145.683-.226l.03-.011a15.173 15.173 0 005.509-3.48 14.108 14.108 0 004.292-11.6l1.391-1.374a.627.627 0 000-.9.647.647 0 00-.908 0l-1.391 1.373a14.494 14.494 0 00-11.748 4.237 14.927 14.927 0 00-3.527 5.438l-.01.03a13.74 13.74 0 00-.229.675 13.046 13.046 0 012.337-5.253 4.459 4.459 0 00-2.746.473 6.36 6.36 0 00-.99.637 13.263 13.263 0 01-.11-1.676 13.55 13.55 0 1113.549 13.377zM50.176 15.09a2.556 2.556 0 013.582 0 2.48 2.48 0 010 3.536 2.556 2.556 0 01-3.581 0 2.478 2.478 0 01-.001-3.536z" fill="#ebebeb"/><path data-name="パス 17" d="M40.484 24.801l-3.444 3.446a.489.489 0 00.691.691l3.445-3.445a.49.49 0 00-.692-.692z" fill="#ebebeb"/><path data-name="パス 18" d="M40.376 27.137l-3.5 3.506a.489.489 0 00.346.834.483.483 0 00.345-.143l3.506-3.5a.49.49 0 10-.692-.692z" fill="#ebebeb"/><path data-name="パス 19" d="M38.845 24.913a.488.488 0 00-.691 0l-3.506 3.506a.49.49 0 00.692.692l3.505-3.506a.489.489 0 000-.692z" fill="#ebebeb"/><path data-name="パス 20" d="M54.218 27.423a12.491 12.491 0 1112.689-12.487 12.591 12.591 0 01-12.689 12.489z" fill="none" stroke="#ebebeb" stroke-miterlimit="10" stroke-width="4.888"/></g></svg>