<svg xmlns="http://www.w3.org/2000/svg" width="138" height="31.472" viewBox="0 0 138 31.472">
  <g id="LOGO" transform="translate(-120.395 -203.864)">
    <g id="グループ_4" data-name="グループ 4" transform="translate(120.395 204.336)">
      <path id="パス_6" data-name="パス 6" d="M126.282,233.373h-5.888V204.336h5.888v29.038Z" transform="translate(-120.395 -204.336)" fill="#ebebeb" fill-rule="evenodd"/>
      <path id="パス_7" data-name="パス 7" d="M149.831,233.373h-5.887V204.336h5.887v29.038Z" transform="translate(-120.395 -204.336)" fill="#ebebeb" fill-rule="evenodd"/>
      <path id="パス_8" data-name="パス 8" d="M126.282,204.336h-5.888l23.55,29.038h5.887l-23.549-29.038Z" transform="translate(-120.395 -204.336)" fill="#ebebeb" fill-rule="evenodd"/>
    </g>
    <g id="グループ_5" data-name="グループ 5" transform="translate(194.447 204.336)">
      <path id="パス_9" data-name="パス 9" d="M220.293,205.772l3.854,4.388-27.206,23.213h-2.23V227.6l25.583-21.829Z" transform="translate(-194.71 -204.336)" fill="#ebebeb" fill-rule="evenodd"/>
      <path id="パス_10" data-name="パス 10" d="M224.147,227.885v5.887H194.71v-5.887Z" transform="translate(-194.71 -204.735)" fill="#ebebeb" fill-rule="evenodd"/>
      <path id="パス_11" data-name="パス 11" d="M224.147,204.336v5.888H194.71v-5.888Z" transform="translate(-194.71 -204.336)" fill="#ebebeb" fill-rule="evenodd"/>
    </g>
    <g id="グループ_7" data-name="グループ 7" transform="translate(228.958 204.336)">
      <g id="グループ_6" data-name="グループ 6">
        <path id="パス_12" data-name="パス 12" d="M244.062,204.336l-14.718,29.036h6.581l11.428-22.544-3.291-6.493Z" transform="translate(-229.344 -204.336)" fill="#ebebeb" fill-rule="evenodd"/>
        <path id="パス_13" data-name="パス 13" d="M240.771,210.829,252.2,233.373h6.581l-14.718-29.036-3.291,6.493Z" transform="translate(-229.344 -204.336)" fill="#ebebeb" fill-rule="evenodd"/>
        <path id="パス_14" data-name="パス 14" d="M246.311,222l2.944,5.888h6.582L252.894,222Z" transform="translate(-229.344 -204.635)" fill="#ebebeb" fill-rule="evenodd"/>
      </g>
      <path id="パス_15" data-name="パス 15" d="M247.6,224.621l-1.635-.238a1.364,1.364,0,0,1-.918-.666l-.733-1.483c-.154-.315-.41-.315-.566,0l-.73,1.481a1.37,1.37,0,0,1-.918.668l-1.637.238c-.348.05-.428.295-.176.539l1.184,1.155a1.366,1.366,0,0,1,.353,1.078l-.281,1.629c-.061.346.148.5.459.334l1.463-.769a1.371,1.371,0,0,1,1.135,0l1.462.769c.313.163.52.012.457-.334l-.277-1.629a1.367,1.367,0,0,1,.35-1.078l1.183-1.155C248.025,224.916,247.947,224.671,247.6,224.621Z" transform="translate(-229.344 -204.735)" fill="#ebebeb"/>
    </g>
    <g id="グループ_8" data-name="グループ 8" transform="translate(154.9 204.336)">
      <path id="パス_16" data-name="パス 16" d="M174.852,204.336a14.585,14.585,0,0,0-14.661,14.475,14.376,14.376,0,0,0,.235,2.566,11.782,11.782,0,0,0-2.533,4.64.42.42,0,0,0,.152.456.433.433,0,0,0,.486.022c1.035-.642,2.6-.254,3.815.942l.057.056.081.08-1.336.842a.42.42,0,0,0-.073.655l3.148,3.108.006.006a.432.432,0,0,0,.6,0,.425.425,0,0,0,.1-.147l.807-1.25.082.08.057.056c1.211,1.2,1.6,2.745.955,3.767a.413.413,0,0,0,.021.479.322.322,0,0,0,.038.043.434.434,0,0,0,.424.107,12.21,12.21,0,0,0,4.523-2.343,14.857,14.857,0,0,0,3.014.309,14.476,14.476,0,1,0,0-28.949Zm0,27.851a13.827,13.827,0,0,1-2.085-.158,6.409,6.409,0,0,0,.794-1.163,4.305,4.305,0,0,0,.479-2.711,13.385,13.385,0,0,1-5.32,2.307c.229-.069.456-.145.683-.226l.03-.011a15.173,15.173,0,0,0,5.509-3.48,14.108,14.108,0,0,0,4.292-11.6l1.391-1.374a.627.627,0,0,0,0-.9.647.647,0,0,0-.908,0l-1.391,1.373a14.494,14.494,0,0,0-11.748,4.237,14.927,14.927,0,0,0-3.527,5.438l-.01.03c-.082.224-.159.448-.229.675a13.046,13.046,0,0,1,2.337-5.253,4.459,4.459,0,0,0-2.746.473,6.36,6.36,0,0,0-.99.637,13.263,13.263,0,0,1-.11-1.676,13.55,13.55,0,1,1,13.549,13.377ZM170.7,218.954a2.556,2.556,0,0,1,3.582,0,2.48,2.48,0,0,1,0,3.536,2.556,2.556,0,0,1-3.581,0A2.478,2.478,0,0,1,170.7,218.954Z" transform="translate(-155.029 -204.336)" fill="#ebebeb"/>
      <path id="パス_17" data-name="パス 17" d="M161.008,229.064l-3.444,3.446a.489.489,0,0,0,.691.691l3.445-3.445a.489.489,0,0,0-.692-.692Z" transform="translate(-155.029 -204.735)" fill="#ebebeb"/>
      <path id="パス_18" data-name="パス 18" d="M160.9,231.4l-3.5,3.506a.489.489,0,0,0,.346.834.483.483,0,0,0,.345-.143l3.506-3.5a.489.489,0,1,0-.692-.692Z" transform="translate(-155.029 -204.735)" fill="#ebebeb"/>
      <path id="パス_19" data-name="パス 19" d="M159.369,229.176a.488.488,0,0,0-.691,0l-3.506,3.506a.489.489,0,0,0,.692.692l3.505-3.506A.489.489,0,0,0,159.369,229.176Z" transform="translate(-155.029 -204.735)" fill="#ebebeb"/>
      <path id="パス_20" data-name="パス 20" d="M174.742,231.287A12.491,12.491,0,1,1,187.431,218.8a12.591,12.591,0,0,1-12.689,12.489Z" transform="translate(-155.029 -204.336)" fill="none" stroke="#ebebeb" stroke-miterlimit="10" stroke-width="4.888" fill-rule="evenodd"/>
    </g>
  </g>
</svg>
